<svg width="498" height="601" viewBox="0 0 498 601" fill="none" xmlns="http://www.w3.org/2000/svg">
<circle cx="332.126" cy="4.12556" r="4.12556" fill="#7594FB"/>
<circle cx="372.377" cy="4.12556" r="4.12556" fill="#7594FB"/>
<circle cx="412.628" cy="4.12556" r="4.12556" fill="#7594FB"/>
<circle cx="452.878" cy="4.12556" r="4.12556" fill="#7594FB"/>
<circle cx="493.129" cy="4.12556" r="4.12556" fill="#7594FB"/>
<circle cx="332.126" cy="44.3768" r="4.12556" fill="#7594FB"/>
<circle cx="372.377" cy="44.3765" r="4.12556" fill="#7594FB"/>
<circle cx="412.628" cy="44.3765" r="4.12556" fill="#7594FB"/>
<circle cx="452.878" cy="44.3765" r="4.12556" fill="#7594FB"/>
<circle cx="493.129" cy="44.3765" r="4.12556" fill="#7594FB"/>
<circle cx="332.126" cy="84.628" r="4.12556" fill="#7594FB"/>
<circle cx="372.377" cy="84.6278" r="4.12556" fill="#7594FB"/>
<circle cx="412.628" cy="84.6278" r="4.12556" fill="#7594FB"/>
<circle cx="452.878" cy="84.6278" r="4.12556" fill="#7594FB"/>
<circle cx="493.129" cy="84.6278" r="4.12556" fill="#7594FB"/>
<circle cx="332.126" cy="124.879" r="4.12556" fill="#7594FB"/>
<circle cx="372.377" cy="124.879" r="4.12556" fill="#7594FB"/>
<circle cx="412.628" cy="124.879" r="4.12556" fill="#7594FB"/>
<circle cx="452.878" cy="124.879" r="4.12556" fill="#7594FB"/>
<circle cx="493.129" cy="124.879" r="4.12556" fill="#7594FB"/>
<circle cx="332.126" cy="165.13" r="4.12556" fill="#7594FB"/>
<circle cx="372.377" cy="165.13" r="4.12556" fill="#7594FB"/>
<circle cx="412.628" cy="165.13" r="4.12556" fill="#7594FB"/>
<circle cx="452.878" cy="165.13" r="4.12556" fill="#7594FB"/>
<circle cx="493.129" cy="165.13" r="4.12556" fill="#7594FB"/>
<circle cx="332.126" cy="205.381" r="4.12556" fill="#7594FB"/>
<circle cx="372.377" cy="205.381" r="4.12556" fill="#7594FB"/>
<circle cx="412.628" cy="205.381" r="4.12556" fill="#7594FB"/>
<circle cx="452.878" cy="205.381" r="4.12556" fill="#7594FB"/>
<circle cx="493.129" cy="205.381" r="4.12556" fill="#7594FB"/>
<circle cx="332.126" cy="245.632" r="4.12556" fill="#7594FB"/>
<circle cx="372.377" cy="245.632" r="4.12556" fill="#7594FB"/>
<circle cx="412.628" cy="245.632" r="4.12556" fill="#7594FB"/>
<circle cx="452.878" cy="245.632" r="4.12556" fill="#7594FB"/>
<circle cx="493.129" cy="245.632" r="4.12556" fill="#7594FB"/>
<circle cx="332.126" cy="285.883" r="4.12556" fill="#7594FB"/>
<circle cx="372.377" cy="285.883" r="4.12556" fill="#7594FB"/>
<circle cx="412.628" cy="285.883" r="4.12556" fill="#7594FB"/>
<circle cx="452.878" cy="285.883" r="4.12556" fill="#7594FB"/>
<circle cx="493.129" cy="285.883" r="4.12556" fill="#7594FB"/>
<circle cx="332.126" cy="326.134" r="4.12556" fill="#7594FB"/>
<circle cx="372.377" cy="326.134" r="4.12556" fill="#7594FB"/>
<circle cx="412.628" cy="326.134" r="4.12556" fill="#7594FB"/>
<circle cx="452.878" cy="326.134" r="4.12556" fill="#7594FB"/>
<circle cx="493.129" cy="326.134" r="4.12556" fill="#7594FB"/>
<circle cx="332.126" cy="366.386" r="4.12556" fill="#7594FB"/>
<circle cx="372.377" cy="366.385" r="4.12556" fill="#7594FB"/>
<circle cx="412.628" cy="366.385" r="4.12556" fill="#7594FB"/>
<circle cx="452.878" cy="366.385" r="4.12556" fill="#7594FB"/>
<circle cx="493.129" cy="366.385" r="4.12556" fill="#7594FB"/>
<circle cx="4.12556" cy="314.126" r="4.12556" fill="#7594FB"/>
<circle cx="44.3765" cy="314.126" r="4.12556" fill="#7594FB"/>
<circle cx="84.6275" cy="314.126" r="4.12556" fill="#7594FB"/>
<circle cx="124.878" cy="314.126" r="4.12556" fill="#7594FB"/>
<circle cx="165.129" cy="314.126" r="4.12556" fill="#7594FB"/>
<circle cx="4.12556" cy="354.377" r="4.12556" fill="#7594FB"/>
<circle cx="44.3765" cy="354.377" r="4.12556" fill="#7594FB"/>
<circle cx="84.6275" cy="354.377" r="4.12556" fill="#7594FB"/>
<circle cx="124.878" cy="354.377" r="4.12556" fill="#7594FB"/>
<circle cx="165.129" cy="354.377" r="4.12556" fill="#7594FB"/>
<circle cx="4.12556" cy="394.628" r="4.12556" fill="#7594FB"/>
<circle cx="44.3765" cy="394.628" r="4.12556" fill="#7594FB"/>
<circle cx="84.6275" cy="394.628" r="4.12556" fill="#7594FB"/>
<circle cx="124.878" cy="394.628" r="4.12556" fill="#7594FB"/>
<circle cx="165.129" cy="394.628" r="4.12556" fill="#7594FB"/>
<circle cx="4.12556" cy="434.879" r="4.12556" fill="#7594FB"/>
<circle cx="44.3765" cy="434.879" r="4.12556" fill="#7594FB"/>
<circle cx="84.6275" cy="434.879" r="4.12556" fill="#7594FB"/>
<circle cx="124.878" cy="434.879" r="4.12556" fill="#7594FB"/>
<circle cx="165.129" cy="434.879" r="4.12556" fill="#7594FB"/>
<circle cx="4.12556" cy="475.13" r="4.12556" fill="#7594FB"/>
<circle cx="44.3765" cy="475.13" r="4.12556" fill="#7594FB"/>
<circle cx="84.6275" cy="475.13" r="4.12556" fill="#7594FB"/>
<circle cx="124.878" cy="475.13" r="4.12556" fill="#7594FB"/>
<circle cx="165.129" cy="475.13" r="4.12556" fill="#7594FB"/>
<circle cx="4.12556" cy="515.381" r="4.12556" fill="#7594FB"/>
<circle cx="44.3765" cy="515.381" r="4.12556" fill="#7594FB"/>
<circle cx="84.6275" cy="515.381" r="4.12556" fill="#7594FB"/>
<circle cx="124.878" cy="515.381" r="4.12556" fill="#7594FB"/>
<circle cx="165.129" cy="515.381" r="4.12556" fill="#7594FB"/>
<circle cx="4.12556" cy="555.632" r="4.12556" fill="#7594FB"/>
<circle cx="44.3765" cy="555.632" r="4.12556" fill="#7594FB"/>
<circle cx="84.6275" cy="555.632" r="4.12556" fill="#7594FB"/>
<circle cx="124.878" cy="555.632" r="4.12556" fill="#7594FB"/>
<circle cx="165.129" cy="555.632" r="4.12556" fill="#7594FB"/>
<circle cx="4.12556" cy="595.883" r="4.12556" fill="#7594FB"/>
<circle cx="44.3765" cy="595.883" r="4.12556" fill="#7594FB"/>
<circle cx="84.6275" cy="595.883" r="4.12556" fill="#7594FB"/>
<circle cx="124.878" cy="595.883" r="4.12556" fill="#7594FB"/>
<circle cx="165.129" cy="595.883" r="4.12556" fill="#7594FB"/>
</svg>
