<svg width="184" height="79" viewBox="0 0 184 79" fill="none" xmlns="http://www.w3.org/2000/svg">
<path d="M114.77 40.0741V38.0856C114.781 37.8148 114.76 37.5438 114.708 37.2778C114.605 36.752 114.34 36.2718 113.95 35.9042C113.561 35.5365 113.067 35.2999 112.536 35.2272C111.668 35.0025 110.764 34.9583 109.878 35.0972C108.992 35.2361 108.144 35.5553 107.386 36.035C107.177 36.1949 106.932 36.3011 106.672 36.3445C106.413 36.3878 106.147 36.3669 105.897 36.2835C105.617 36.1913 105.365 36.0274 105.167 35.8079C104.97 35.5884 104.833 35.3209 104.77 35.0321C104.707 34.7433 104.721 34.4431 104.81 34.1612C104.899 33.8793 105.06 33.6256 105.277 33.4251C105.84 32.8402 106.546 32.4119 107.324 32.1823C109.607 31.3375 112.083 31.165 114.46 31.6852C115.913 31.9554 117.216 32.7517 118.121 33.9222C118.888 35.0106 119.28 36.3193 119.238 37.6506V46.8473C119.246 47.1451 119.193 47.4413 119.082 47.7178C118.971 47.9943 118.806 48.2452 118.595 48.4553C118.384 48.6653 118.132 48.83 117.856 48.9392C117.579 49.0485 117.283 49.1 116.986 49.0906C116.715 49.1008 116.444 49.08 116.179 49.0284C115.77 48.9394 115.404 48.7113 115.144 48.3828C114.884 48.0542 114.745 47.6456 114.752 47.2264C114.69 47.2264 114.69 47.2264 114.628 47.2885C113.511 48.4451 112.01 49.1525 110.408 49.277C109.099 49.464 107.763 49.2699 106.561 48.7177C105.533 48.2518 104.679 47.4715 104.121 46.489C103.564 45.5065 103.332 44.3723 103.458 43.2494C103.499 42.0329 103.971 40.8706 104.79 39.971C105.608 39.0714 106.72 38.4933 107.926 38.3404C109.858 37.924 111.876 38.2571 113.573 39.2725C113.773 39.3977 113.961 39.5435 114.131 39.7074C114.362 39.7948 114.578 39.9186 114.77 40.0741ZM114.77 43.6782V43.0568C114.798 42.8758 114.772 42.6907 114.694 42.5248C114.617 42.3589 114.492 42.2196 114.336 42.1247C113.666 41.6077 112.874 41.273 112.037 41.1532C111.2 41.0335 110.346 41.1326 109.558 41.4411C109.091 41.5929 108.686 41.8938 108.406 42.2978C108.126 42.7019 107.986 43.1867 108.007 43.6782C108.021 44.1787 108.19 44.6625 108.49 45.0631C108.79 45.4637 109.206 45.7613 109.682 45.9152C110.479 46.1927 111.335 46.2569 112.164 46.1016C113.021 45.999 113.824 45.6295 114.46 45.0453C114.575 44.9614 114.665 44.8475 114.72 44.716C114.774 44.5845 114.792 44.4404 114.77 44.2996C114.739 44.0936 114.739 43.8841 114.77 43.6782Z" fill="#536E96"/>
<path d="M129.476 31.3745C131.184 31.337 132.878 31.6765 134.44 32.3687C134.904 32.579 135.325 32.8741 135.681 33.2387C135.916 33.4404 136.084 33.7093 136.161 34.0093C136.239 34.3093 136.223 34.6259 136.116 34.9165C136.014 35.2172 135.833 35.4851 135.593 35.6927C135.353 35.9002 135.062 36.0399 134.75 36.0971C134.528 36.1471 134.297 36.1508 134.073 36.108C133.849 36.0653 133.636 35.977 133.447 35.8486C132.257 35.1724 130.907 34.829 129.538 34.8543C129.155 34.8299 128.77 34.8834 128.407 35.0115C128.045 35.1397 127.712 35.3398 127.428 35.6C127.281 35.7155 127.167 35.869 127.1 36.044C127.032 36.219 127.014 36.4091 127.045 36.594C127.077 36.7788 127.159 36.9516 127.281 37.0939C127.403 37.2362 127.561 37.3427 127.739 37.4021C128.414 37.6942 129.123 37.9029 129.848 38.0235C131.131 38.2673 132.396 38.5995 133.634 39.0177C134.55 39.34 135.379 39.8719 136.054 40.5712C136.466 41.0554 136.773 41.6206 136.955 42.2306C137.136 42.8405 137.189 43.4818 137.108 44.1132C137.041 45.0958 136.688 46.0372 136.092 46.8212C135.497 47.6052 134.685 48.1975 133.758 48.5251C132.361 49.0883 130.853 49.3222 129.352 49.2086C127.686 49.1697 126.043 48.8111 124.512 48.1523C123.977 47.9158 123.492 47.5783 123.085 47.158C122.092 46.0395 122.899 44.486 124.202 44.1753C124.652 44.1056 125.112 44.1934 125.505 44.4239C126.704 45.1245 128.035 45.5688 129.414 45.7288C130.188 45.8347 130.976 45.7494 131.71 45.4803C132.024 45.3928 132.302 45.2068 132.503 44.9496C132.704 44.6924 132.818 44.3775 132.827 44.051C132.855 43.8701 132.828 43.6849 132.751 43.519C132.674 43.3531 132.549 43.2139 132.393 43.1189C131.947 42.8491 131.467 42.6401 130.965 42.4975C129.786 42.1868 128.545 41.9383 127.366 41.6897C126.515 41.5101 125.698 41.1954 124.946 40.7576C122.154 39.2041 122.154 35.4136 124.016 33.4873C125.099 32.3999 126.523 31.7196 128.049 31.5609C128.518 31.4528 128.996 31.3903 129.476 31.3745Z" fill="#536E96"/>
<path d="M101.305 40.0742C101.243 42.7462 100.56 44.9211 98.8226 46.661C97.6078 47.9186 96.0183 48.7472 94.2928 49.0223C92.2452 49.4549 90.1128 49.2152 88.2119 48.3388C86.9839 47.777 85.912 46.9226 85.0899 45.8502C84.2678 44.7778 83.7206 43.5201 83.496 42.1869C83.2253 40.9893 83.2013 39.7489 83.4253 38.5416C83.6494 37.3343 84.1168 36.1854 84.7991 35.1651C85.4409 34.1608 86.2967 33.3112 87.3052 32.6773C88.3136 32.0435 89.4497 31.641 90.6318 31.4989C92.4942 31.1753 94.4101 31.3909 96.1544 32.1203C97.4842 32.6619 98.6485 33.544 99.5307 34.6782C100.413 35.8125 100.982 37.159 101.18 38.5828C101.243 39.1483 101.243 39.7013 101.305 40.0742ZM87.9637 40.2606C87.937 41.1162 88.1068 41.9666 88.4601 42.7462C88.7798 43.438 89.2822 44.0292 89.9131 44.4557C90.544 44.8823 91.2794 45.1281 92.0396 45.1664C92.7999 45.2048 93.5562 45.0344 94.2267 44.6735C94.8972 44.3127 95.4565 43.7751 95.8441 43.119C96.3971 42.2202 96.6847 41.183 96.6737 40.1273C96.6627 39.0717 96.3536 38.0407 95.7821 37.1536C95.446 36.6169 94.9913 36.1647 94.4529 35.8321C93.9146 35.4994 93.307 35.2952 92.6773 35.2351C92.0476 35.175 91.4125 35.2608 90.8211 35.4857C90.2297 35.7106 89.6979 36.0687 89.2667 36.5322C88.3678 37.5598 87.9008 38.8959 87.9637 40.2606Z" fill="#536E96"/>
<path d="M141.266 35.7241H140.273C139.755 35.7241 139.257 35.5178 138.891 35.1508C138.524 34.7837 138.318 34.2858 138.318 33.7667C138.318 33.2475 138.524 32.7497 138.891 32.3826C139.257 32.0155 139.755 31.8093 140.273 31.8093H141.328V28.9508C141.405 28.3892 141.689 27.8766 142.123 27.5129C142.558 27.1493 143.112 26.9607 143.677 26.984C144.243 27.0073 144.78 27.2407 145.183 27.6388C145.586 28.0369 145.826 28.5711 145.858 29.1373V31.8093H147.781C148.289 31.8642 148.755 32.1161 149.08 32.511C149.405 32.9059 149.562 33.4123 149.519 33.922C149.469 34.4044 149.248 34.8527 148.894 35.1839C148.54 35.5152 148.079 35.7071 147.595 35.7241H145.858V43.4978C145.836 43.8698 145.94 44.2382 146.154 44.543C146.368 44.8477 146.679 45.0707 147.037 45.1755C147.281 45.227 147.531 45.2479 147.781 45.2377C148.093 45.2088 148.407 45.2592 148.694 45.384C148.981 45.5089 149.232 45.7042 149.424 45.952C149.616 46.1998 149.742 46.492 149.791 46.8016C149.84 47.1112 149.81 47.4282 149.705 47.7233C149.644 47.935 149.542 48.1323 149.403 48.3032C149.265 48.4741 149.093 48.615 148.898 48.7175C148.196 49.0359 147.435 49.2051 146.664 49.2146C145.717 49.314 144.76 49.1862 143.872 48.8418C143.216 48.5969 142.645 48.1676 142.226 47.6054C141.808 47.0433 141.561 46.3722 141.514 45.6727C141.462 45.2813 141.442 44.8866 141.452 44.492V36.1591C141.389 36.1067 141.339 36.0399 141.306 35.9642C141.274 35.8885 141.26 35.8062 141.266 35.7241Z" fill="#536E96"/>
<path d="M73.3825 31.8092V29.3236C73.3723 29.1145 73.3933 28.9051 73.4446 28.7022C73.5707 28.1564 73.894 27.6767 74.3523 27.3554C74.8106 27.0342 75.3713 26.8941 75.9266 26.9623C76.4666 27.0172 76.9674 27.2693 77.3337 27.6704C77.6999 28.0716 77.9058 28.5937 77.9122 29.1372V31.7471H79.7737C80.0274 31.7688 80.2742 31.841 80.4996 31.9595C80.725 32.0781 80.9245 32.2405 81.0863 32.4373C81.2482 32.6341 81.3691 32.8614 81.4421 33.1056C81.515 33.3499 81.5385 33.6063 81.5111 33.8598C81.4725 34.3462 81.2538 34.8007 80.898 35.1341C80.5422 35.4674 80.0748 35.6557 79.5876 35.6619H77.8502V43.1808C77.84 43.3899 77.8609 43.5993 77.9122 43.8022C77.9616 44.1909 78.1547 44.5469 78.4533 44.8C78.752 45.0531 79.1346 45.1848 79.5255 45.1693C79.8803 45.1763 80.2336 45.2179 80.5804 45.2935C80.9176 45.4109 81.2111 45.6284 81.4217 45.9171C81.6323 46.2057 81.7501 46.5518 81.7593 46.9092C81.8241 47.2703 81.7679 47.6427 81.5996 47.9685C81.4313 48.2944 81.1603 48.5555 80.8286 48.7112C80.277 48.9502 79.6901 49.0972 79.0912 49.1462C78.2183 49.2392 77.3359 49.1761 76.485 48.9598C75.6741 48.78 74.9417 48.3454 74.3947 47.7194C73.8478 47.0934 73.5149 46.3088 73.4446 45.48C73.3947 45.1302 73.374 44.7768 73.3825 44.4236V35.5997H72.309C72.0521 35.6047 71.7968 35.5587 71.5577 35.4644C71.3186 35.3701 71.1005 35.2294 70.916 35.0503C70.7314 34.8713 70.584 34.6574 70.4823 34.4211C70.3807 34.1848 70.3266 33.9307 70.3234 33.6734C70.3232 33.1566 70.5238 32.66 70.8829 32.2888C71.2419 31.9177 71.7312 31.7011 72.247 31.6849C72.6159 31.7895 72.9997 31.8315 73.3825 31.8092Z" fill="#536E96"/>
<path d="M65.6264 33.425C66.7434 34.0464 67.0536 35.1028 67.1777 36.2213C67.4462 38.51 67.5292 40.8167 67.4259 43.1188C67.4259 44.4237 67.3639 45.7287 67.2398 47.0336C67.1718 47.6399 67.0682 48.2416 66.9295 48.8357C66.6813 49.8921 65.9367 50.327 64.9439 50.5756C63.9216 50.7707 62.876 50.8126 61.8413 50.6999C59.9798 50.5135 58.1183 50.327 56.2568 50.0785C54.3204 49.8301 52.3603 49.8301 50.424 50.0785L44.1569 51.0106C43.3944 51.1038 42.6234 51.1038 41.861 51.0106C41.4389 50.9521 41.0374 50.7914 40.6913 50.5423C40.3453 50.2933 40.0652 49.9634 39.8753 49.5814C39.3335 48.6479 38.9952 47.6102 38.8825 46.5365C38.5938 44.6873 38.4899 42.8138 38.5723 40.9439C38.6277 38.7906 39.069 36.6648 39.8753 34.6678C40.2412 33.8965 40.6557 33.1493 41.1164 32.4308C40.8944 32.2172 40.6871 31.9888 40.4959 31.7472C39.8794 31.1685 39.5096 30.3739 39.4633 29.529C39.4171 28.684 39.698 27.8538 40.2477 27.211C40.9806 26.2716 41.9132 25.5074 42.9779 24.974C45.4461 23.6112 48.1737 22.7854 50.9824 22.5505C54.6055 22.1734 58.264 22.754 61.5931 24.2345C62.9504 24.8129 64.191 25.6341 65.2541 26.658C66.3565 27.7243 67.0206 29.1651 67.1157 30.6971C67.1915 31.1753 67.1262 31.6653 66.9278 32.1068C66.7293 32.5484 66.4064 32.9223 65.9987 33.1827C65.9367 33.3629 65.8126 33.3629 65.6264 33.425ZM62.586 33.0522C62.648 32.99 62.648 32.99 62.7101 32.99C63.1129 32.7672 63.4111 32.3934 63.539 31.9507C63.667 31.508 63.6143 31.0326 63.3926 30.6287C62.9981 29.7908 62.4264 29.0487 61.7172 28.4538C60.6397 27.6346 59.4192 27.0235 58.1183 26.6518C55.5925 25.8557 52.9194 25.6433 50.2999 26.0304C48.7063 26.2378 47.1561 26.6993 45.7081 27.3974C44.7057 27.8445 43.8773 28.6085 43.3502 29.5723C43.0954 30.0076 43.0114 30.5223 43.1146 31.0162C43.2178 31.5101 43.5009 31.9479 43.9087 32.2443C44.0662 32.3529 44.2118 32.4778 44.343 32.6172C44.0328 33.1143 43.6604 33.5493 43.4122 34.0464C42.8061 35.2772 42.4077 36.6 42.2333 37.9612C41.9138 39.7234 41.8096 41.5179 41.923 43.3052C41.9838 44.2937 42.2818 45.2529 42.7917 46.1015C43.003 46.5046 43.3132 46.8473 43.6931 47.0973C44.073 47.3473 44.5102 47.4965 44.9635 47.5307C45.3606 47.5511 45.7584 47.5091 46.1425 47.4065L50.2999 46.4744C51.7265 46.1645 53.1956 46.1015 54.6434 46.2879C56.1947 46.4744 57.746 46.7229 59.3593 46.9093C60.304 47.0542 61.2635 47.0751 62.2136 46.9715C62.7551 46.9296 63.266 46.7033 63.6611 46.3302C64.0563 45.9571 64.3119 45.4597 64.3854 44.9209C64.7255 42.9937 64.8503 41.0346 64.7577 39.0797C64.7356 37.8872 64.59 36.7002 64.3234 35.5378C64.0131 34.4814 63.6222 33.6114 62.586 33.0522Z" fill="#536E96"/>
</svg>
