<svg width="187" height="81" viewBox="0 0 187 81" fill="none" xmlns="http://www.w3.org/2000/svg">
<path fill-rule="evenodd" clip-rule="evenodd" d="M38.5901 45.979H18.2192C17.7676 45.979 17.3344 45.7994 17.0151 45.4796C16.6958 45.1598 16.5164 44.726 16.5164 44.2738C16.5164 43.8215 16.6958 43.3877 17.0151 43.0679C17.3344 42.7481 17.7676 42.5685 18.2192 42.5685H38.5901C39.0417 42.5685 39.4748 42.7481 39.7941 43.0679C40.1135 43.3877 40.2929 43.8215 40.2929 44.2738C40.2929 44.726 40.1135 45.1598 39.7941 45.4796C39.4748 45.7994 39.0417 45.979 38.5901 45.979Z" fill="#536E96"/>
<path fill-rule="evenodd" clip-rule="evenodd" d="M34.2382 56.4003C32.5951 56.3953 30.9607 56.1615 29.382 55.7055C29.1667 55.6392 28.9665 55.531 28.7929 55.3872C28.6193 55.2434 28.4757 55.0667 28.3703 54.8673C28.1574 54.4646 28.113 53.9937 28.2468 53.5582C28.3806 53.1227 28.6817 52.7582 29.0838 52.545C29.4859 52.3318 29.9562 52.2873 30.3911 52.4213C31.6385 52.7993 32.9349 52.9909 34.2382 52.9897C37.0287 52.9777 39.7417 52.0692 41.9782 50.398C44.2146 48.7267 45.8566 46.3809 46.6625 43.7055C46.8047 43.2757 47.1071 42.9175 47.5066 42.7056C47.9062 42.4938 48.372 42.4447 48.8069 42.5686C49.236 42.711 49.5937 43.0138 49.8053 43.4139C50.0168 43.8141 50.0658 44.2806 49.9421 44.716C48.9328 48.0991 46.8583 51.0647 44.0282 53.1704C41.1981 55.2761 37.764 56.4091 34.2382 56.4003Z" fill="#536E96"/>
<path fill-rule="evenodd" clip-rule="evenodd" d="M50.2583 37.3263H29.8874C29.4358 37.3263 29.0027 37.1467 28.6833 36.8269C28.364 36.5071 28.1846 36.0733 28.1846 35.6211C28.1846 35.1688 28.364 34.735 28.6833 34.4152C29.0027 34.0954 29.4358 33.9158 29.8874 33.9158H50.2583C50.4821 33.9149 50.7039 33.9585 50.9109 34.0439C51.1179 34.1293 51.3059 34.2549 51.4642 34.4134C51.6225 34.5719 51.7479 34.7602 51.8332 34.9675C51.9185 35.1748 51.9619 35.3969 51.9611 35.6211C51.953 36.0708 51.771 36.4998 51.4534 36.8179C51.1358 37.136 50.7074 37.3182 50.2583 37.3263Z" fill="#536E96"/>
<path fill-rule="evenodd" clip-rule="evenodd" d="M73.4038 39.2214L70.6288 38.653C69.2413 38.3372 68.4845 37.5162 68.4845 36.253C68.4845 34.6109 69.872 33.474 71.8271 33.474C72.6202 33.4413 73.402 33.671 74.0517 34.1276C74.7014 34.5842 75.183 35.2423 75.422 36.0004C75.4477 36.0978 75.4951 36.1882 75.5607 36.2648C75.6262 36.3413 75.7081 36.4021 75.8004 36.4425C75.9848 36.4946 76.1766 36.5159 76.368 36.5056L77.8185 36.0004C77.9068 35.9733 77.9887 35.9286 78.0592 35.8689C78.1297 35.8092 78.1874 35.7358 78.2287 35.6531C78.27 35.5704 78.294 35.4801 78.2994 35.3878C78.3048 35.2955 78.2914 35.2031 78.26 35.1161C77.8816 33.7898 76.4941 30.6951 71.8271 30.6951C68.3584 30.6951 65.3942 33.3477 65.3942 36.5056C65.3942 39.2214 67.1601 41.2425 70.1243 41.8741L72.7731 42.4425C74.4129 42.7583 75.2958 43.7688 75.2958 45.032C75.2958 46.6741 73.9083 47.6846 71.764 47.6846C70.7991 47.7287 69.8511 47.4197 69.0969 46.8155C68.3426 46.2112 67.8336 45.3528 67.6646 44.4004C67.6294 44.2171 67.5238 44.0549 67.3705 43.9487C67.2172 43.8424 67.0285 43.8005 66.8448 43.832C66.7817 43.832 66.7817 43.832 66.7817 43.8951L65.1419 44.4004C64.9764 44.4584 64.8359 44.5717 64.7441 44.7212C64.6522 44.8707 64.6145 45.0474 64.6374 45.2214C65.1419 47.8741 67.2862 50.6531 71.8271 50.6531C75.6742 50.6531 78.5123 48.1267 78.5123 44.8425C78.5123 41.9372 76.6833 39.9162 73.4038 39.2214ZM89.9275 41.7477C89.9275 41.8109 89.9275 41.8109 89.8645 41.8741C89.8014 41.9372 89.8014 41.9372 89.7383 41.9372H83.81C83.7469 41.9372 83.7469 41.8741 83.6838 41.8741C83.6208 41.8741 83.6208 41.8109 83.6208 41.7477C83.7597 41.0365 84.147 40.398 84.7133 39.9466C85.2795 39.4953 85.9878 39.2606 86.7111 39.2846C88.477 39.2846 89.6753 40.232 89.9275 41.7477ZM86.7111 36.5056C83.6208 36.5056 80.4043 39.0951 80.4043 43.453C80.3692 44.4086 80.5302 45.3612 80.8773 46.252C81.2244 47.1428 81.7503 47.9528 82.4225 48.632C83.0274 49.236 83.7456 49.7143 84.5357 50.0395C85.3257 50.3646 86.1722 50.5302 87.0264 50.5267C88.2579 50.5739 89.4743 50.242 90.5117 49.5758C91.5491 48.9095 92.3577 47.9409 92.8287 46.8004C92.8921 46.6163 92.8921 46.4161 92.8287 46.232C92.7883 46.1396 92.7277 46.0575 92.6512 45.9919C92.5748 45.9263 92.4845 45.8788 92.3872 45.853L91.0628 45.4109C90.8947 45.3568 90.7128 45.3653 90.5505 45.4349C90.3882 45.5046 90.2566 45.6307 90.1798 45.7899C89.9387 46.4199 89.5025 46.9561 88.935 47.3198C88.3676 47.6835 87.6987 47.8556 87.0264 47.8109C86.1661 47.8247 85.3319 47.5142 84.6894 46.9409C84.047 46.3677 83.643 45.5737 83.5577 44.7162C83.5577 44.653 83.5577 44.653 83.6208 44.5899C83.6548 44.5556 83.6991 44.5334 83.7469 44.5267H92.3872C92.5707 44.5251 92.7462 44.4513 92.8759 44.3214C93.0057 44.1915 93.0793 44.0157 93.0809 43.832V43.453C93.0809 39.1583 90.6213 36.5056 86.7111 36.5056ZM101.406 46.8636C99.3246 46.8636 98.0633 45.4109 98.0633 43.1372C98.0633 40.8635 99.3877 39.4109 101.406 39.4109C103.424 39.4109 104.748 40.9267 104.748 43.1372C104.748 45.3478 103.361 46.8636 101.406 46.8636ZM106.893 36.9477H105.316C105.22 36.9501 105.126 36.9718 105.039 37.0115C104.951 37.0512 104.873 37.1082 104.808 37.1789C104.743 37.2497 104.694 37.3328 104.662 37.4233C104.63 37.5138 104.616 37.6098 104.622 37.7056C104.616 37.7535 104.594 37.7979 104.559 37.8319C104.496 37.8319 104.496 37.8951 104.433 37.8319C103.49 37.0653 102.305 36.662 101.091 36.6951C97.5587 36.6951 95.036 39.4109 95.036 43.1372C95.036 46.8636 97.5587 49.5794 101.091 49.5794C102.315 49.6101 103.507 49.1822 104.433 48.3794C104.466 48.3433 104.511 48.3208 104.559 48.3162C104.622 48.3162 104.622 48.3794 104.622 48.4425V49.0109C104.622 51.6004 103.487 52.8004 101.027 52.8004C100.314 52.8234 99.6146 52.5963 99.0504 52.1581C98.4863 51.7199 98.0925 51.0983 97.9371 50.4004C97.8695 50.2296 97.7612 50.0778 97.6218 49.9583C97.5402 49.9008 97.4453 49.8648 97.3461 49.8538C97.2469 49.8427 97.1465 49.857 97.0542 49.8952L95.5406 50.2109C95.3485 50.2533 95.181 50.3701 95.0746 50.5358C94.9682 50.7015 94.9317 50.9026 94.973 51.0952C95.5406 53.7478 97.9372 55.5794 101.027 55.5794C103.298 55.5794 105.064 54.8846 106.199 53.4952C107.199 52.1962 107.713 50.5869 107.65 48.9478V37.6425C107.647 37.5465 107.626 37.452 107.586 37.3646C107.546 37.2773 107.489 37.1988 107.419 37.1339C107.348 37.0691 107.265 37.0192 107.175 36.9872C107.084 36.9552 106.988 36.9418 106.893 36.9477ZM125.498 36.5688C124.712 36.5269 123.928 36.6776 123.214 37.0078C122.499 37.338 121.876 37.8377 121.398 38.4635C121.335 38.5267 121.335 38.5267 121.272 38.5267C121.255 38.5267 121.239 38.52 121.228 38.5082C121.216 38.4963 121.209 38.4803 121.209 38.4635C120.801 37.8573 120.245 37.3653 119.594 37.0338C118.943 36.7023 118.218 36.5423 117.488 36.5688C116.284 36.549 115.116 36.9765 114.209 37.7688C114.184 37.7927 114.154 37.8107 114.121 37.8216C114.088 37.8325 114.054 37.8361 114.019 37.8319C113.956 37.7688 113.956 37.7688 113.956 37.7056C113.966 37.612 113.955 37.5172 113.924 37.4284C113.892 37.3396 113.842 37.259 113.775 37.1923C113.709 37.1257 113.628 37.0749 113.539 37.0435C113.451 37.0121 113.356 37.0009 113.263 37.0109H111.686C111.502 37.0125 111.327 37.0863 111.197 37.2162C111.067 37.3461 110.994 37.5219 110.992 37.7056V49.4531C110.982 49.5467 110.993 49.6414 111.025 49.7302C111.056 49.8191 111.107 49.8997 111.173 49.9663C111.24 50.0329 111.32 50.0838 111.409 50.1152C111.498 50.1466 111.592 50.1577 111.686 50.1478H113.263C113.446 50.1461 113.622 50.0724 113.751 49.9425C113.881 49.8125 113.955 49.6368 113.956 49.4531V42.253C113.956 40.4846 115.029 39.3477 116.605 39.3477C118.686 39.3477 119.002 40.9899 119.002 41.9372V49.4531C118.992 49.5467 119.003 49.6414 119.034 49.7302C119.066 49.8191 119.116 49.8997 119.183 49.9663C119.249 50.0329 119.33 50.0838 119.419 50.1152C119.507 50.1466 119.602 50.1577 119.696 50.1478H121.272C121.456 50.1461 121.631 50.0724 121.761 49.9425C121.891 49.8125 121.964 49.6368 121.966 49.4531V42.1899C121.966 40.4846 123.038 39.2846 124.615 39.2846C126.696 39.2846 127.011 40.9267 127.011 41.8741V49.3899C127.001 49.4836 127.013 49.5783 127.044 49.6671C127.075 49.7559 127.126 49.8366 127.193 49.9032C127.259 49.9698 127.34 50.0207 127.428 50.052C127.517 50.0834 127.612 50.0946 127.705 50.0846H129.282C129.375 50.0946 129.47 50.0834 129.559 50.052C129.647 50.0207 129.728 49.9698 129.794 49.9032C129.861 49.8366 129.912 49.7559 129.943 49.6671C129.974 49.5783 129.985 49.4836 129.976 49.3899V41.6214C130.102 38.1477 127.768 36.5688 125.498 36.5688ZM136.03 41.9372C135.967 41.9372 135.967 41.8741 135.904 41.8741C135.841 41.8741 135.841 41.8109 135.841 41.7477C135.98 41.0365 136.367 40.398 136.933 39.9466C137.5 39.4953 138.208 39.2606 138.931 39.2846C140.634 39.2846 141.832 40.232 142.085 41.7477C142.085 41.8109 142.085 41.8109 142.022 41.8741C141.958 41.9372 141.958 41.9372 141.895 41.9372H136.03ZM138.931 36.5688C135.841 36.5688 132.624 39.1583 132.624 43.5162C132.589 44.4718 132.75 45.4244 133.097 46.3152C133.445 47.206 133.97 48.016 134.643 48.6951C135.251 49.2903 135.971 49.7586 136.761 50.073C137.552 50.3875 138.396 50.5417 139.247 50.5267C140.476 50.565 141.689 50.2295 142.724 49.5643C143.76 48.8992 144.57 47.9356 145.049 46.8004C145.112 46.6163 145.112 46.4161 145.049 46.232C145.008 46.1396 144.948 46.0575 144.871 45.9919C144.795 45.9263 144.705 45.8788 144.607 45.853L143.283 45.4109C143.115 45.3494 142.93 45.3544 142.766 45.4248C142.602 45.4953 142.471 45.6258 142.4 45.7899C142.159 46.4199 141.723 46.9561 141.155 47.3198C140.588 47.6835 139.919 47.8556 139.247 47.8109C138.386 47.8247 137.552 47.5142 136.91 46.9409C136.267 46.3677 135.863 45.5737 135.778 44.7162C135.778 44.653 135.778 44.653 135.841 44.5899C135.875 44.5556 135.919 44.5334 135.967 44.5267H144.607C144.791 44.5251 144.966 44.4513 145.096 44.3214C145.226 44.1915 145.299 44.0157 145.301 43.832V43.453C145.238 39.1583 142.841 36.5056 138.931 36.5688ZM154.572 36.5688C153.954 36.5518 153.339 36.6606 152.765 36.8886C152.19 37.1166 151.668 37.459 151.229 37.8951C151.166 37.9583 151.166 37.9583 151.04 37.9583C150.914 37.9583 150.977 37.8951 150.977 37.8319V37.7688C150.987 37.6751 150.976 37.5804 150.945 37.4916C150.913 37.4028 150.862 37.3221 150.796 37.2555C150.729 37.1889 150.649 37.138 150.56 37.1066C150.471 37.0752 150.377 37.0641 150.283 37.074H148.77C148.676 37.0641 148.582 37.0752 148.493 37.1066C148.404 37.138 148.324 37.1889 148.257 37.2555C148.191 37.3221 148.14 37.4028 148.109 37.4916C148.077 37.5804 148.066 37.6751 148.076 37.7688V49.5162C148.066 49.6099 148.077 49.7046 148.109 49.7934C148.14 49.8822 148.191 49.9629 148.257 50.0295C148.324 50.0961 148.404 50.147 148.493 50.1784C148.582 50.2098 148.676 50.2209 148.77 50.2109H150.346C150.44 50.2209 150.535 50.2098 150.623 50.1784C150.712 50.147 150.792 50.0961 150.859 50.0295C150.926 49.9629 150.976 49.8822 151.008 49.7934C151.039 49.7046 151.05 49.6099 151.04 49.5162V42.5688C151.04 41.053 151.734 39.3477 153.689 39.3477C155.455 39.3477 156.338 40.2951 156.338 42.253V49.3899C156.328 49.4836 156.339 49.5783 156.37 49.6671C156.402 49.7559 156.453 49.8366 156.519 49.9032C156.586 49.9698 156.666 50.0207 156.755 50.052C156.844 50.0834 156.938 50.0946 157.032 50.0846H158.608C158.702 50.0946 158.796 50.0834 158.885 50.052C158.974 50.0207 159.054 49.9698 159.121 49.9032C159.187 49.8366 159.238 49.7559 159.27 49.6671C159.301 49.5783 159.312 49.4836 159.302 49.3899V41.8741C159.365 38.5898 157.536 36.5688 154.572 36.5688ZM166.744 39.7267H168.636C168.73 39.7366 168.824 39.7255 168.913 39.6941C169.002 39.6627 169.082 39.6118 169.149 39.5452C169.215 39.4786 169.266 39.398 169.297 39.3091C169.329 39.2203 169.34 39.1256 169.33 39.0319V37.6425C169.34 37.5488 169.329 37.4541 169.297 37.3653C169.266 37.2765 169.215 37.1958 169.149 37.1292C169.082 37.0626 169.002 37.0117 168.913 36.9803C168.824 36.9489 168.73 36.9378 168.636 36.9477H166.744C166.681 36.9477 166.555 36.8846 166.555 36.8214V33.7267C166.565 33.633 166.554 33.5383 166.522 33.4495C166.491 33.3607 166.44 33.28 166.374 33.2134C166.307 33.1468 166.227 33.0959 166.138 33.0645C166.049 33.0331 165.955 33.022 165.861 33.0319H164.474C164.38 33.022 164.286 33.0331 164.197 33.0645C164.108 33.0959 164.028 33.1468 163.961 33.2134C163.895 33.28 163.844 33.3607 163.812 33.4495C163.781 33.5383 163.77 33.633 163.78 33.7267V35.3688C163.805 35.5905 163.78 35.8151 163.706 36.0258C163.633 36.2365 163.513 36.4278 163.355 36.5856C163.198 36.7434 163.007 36.8636 162.796 36.9373C162.586 37.0109 162.362 37.0361 162.14 37.0109H161.888C161.794 37.0009 161.7 37.0121 161.611 37.0435C161.522 37.0749 161.442 37.1257 161.375 37.1923C161.309 37.259 161.258 37.3396 161.227 37.4284C161.195 37.5172 161.184 37.612 161.194 37.7056V39.0951C161.184 39.1888 161.195 39.2835 161.227 39.3723C161.258 39.4611 161.309 39.5418 161.375 39.6084C161.442 39.675 161.522 39.7259 161.611 39.7573C161.7 39.7887 161.794 39.7998 161.888 39.7898H163.401C163.465 39.7898 163.591 39.853 163.591 39.9162V46.4215C163.591 48.8215 165.041 50.2741 167.438 50.2741C167.904 50.2825 168.369 50.2402 168.825 50.1478C168.983 50.1104 169.124 50.0222 169.227 49.8966C169.329 49.7711 169.388 49.6152 169.393 49.4531V48.1899C169.403 48.0962 169.392 48.0015 169.36 47.9127C169.329 47.8239 169.278 47.7432 169.212 47.6766C169.145 47.61 169.065 47.5591 168.976 47.5277C168.887 47.4963 168.793 47.4852 168.699 47.4951H168.636C168.447 47.4951 168.321 47.5583 168.195 47.5583C167.122 47.5583 166.681 47.1794 166.681 46.1057V39.9162C166.555 39.7898 166.681 39.7267 166.744 39.7267Z" fill="#536E96"/>
<path fill-rule="evenodd" clip-rule="evenodd" d="M20.1746 37.3265C19.9507 37.3274 19.7289 37.2838 19.522 37.1984C19.315 37.113 19.1269 36.9874 18.9686 36.8289C18.8104 36.6704 18.685 36.4821 18.5997 36.2748C18.5144 36.0676 18.4709 35.8454 18.4718 35.6213C18.4718 35.4318 18.5348 35.3055 18.5348 35.116C19.5625 31.749 21.6436 28.8018 24.4712 26.7094C27.2987 24.617 30.7229 23.4901 34.2387 23.4949C35.8818 23.4998 37.5162 23.7336 39.0949 24.1896C39.5195 24.3384 39.8724 24.6423 40.0829 25.0404C40.2934 25.4386 40.346 25.9017 40.2301 26.337C40.0816 26.7623 39.7781 27.1156 39.3805 27.3264C38.9829 27.5372 38.5205 27.5899 38.0858 27.4739C36.8383 27.0958 35.542 26.9043 34.2387 26.9054C31.4495 26.886 28.7296 27.7749 26.4887 29.438C24.2478 31.1012 22.6073 33.4485 21.8143 36.1265C21.6976 36.4712 21.4774 36.7714 21.184 36.9862C20.8905 37.201 20.538 37.3198 20.1746 37.3265Z" fill="#536E96"/>
<path fill-rule="evenodd" clip-rule="evenodd" d="M46.0317 29.1158C46.0317 29.4531 45.9318 29.7828 45.7447 30.0632C45.5576 30.3436 45.2916 30.5622 44.9805 30.6913C44.6693 30.8203 44.3269 30.8541 43.9966 30.7883C43.6663 30.7225 43.3629 30.5601 43.1248 30.3216C42.8866 30.0831 42.7244 29.7793 42.6587 29.4485C42.593 29.1177 42.6267 28.7748 42.7556 28.4632C42.8845 28.1516 43.1028 27.8853 43.3828 27.6979C43.6628 27.5105 43.992 27.4105 44.3288 27.4105C44.7779 27.4186 45.2064 27.6009 45.524 27.919C45.8416 28.237 46.0236 28.6661 46.0317 29.1158ZM25.85 50.7791C25.85 51.1163 25.7501 51.446 25.563 51.7265C25.3759 52.0069 25.11 52.2255 24.7988 52.3545C24.4877 52.4836 24.1453 52.5174 23.815 52.4516C23.4846 52.3858 23.1812 52.2234 22.9431 51.9849C22.7049 51.7464 22.5428 51.4425 22.4771 51.1117C22.4114 50.781 22.4451 50.4381 22.574 50.1265C22.7028 49.8149 22.9211 49.5486 23.2011 49.3612C23.4812 49.1738 23.8104 49.0738 24.1472 49.0738C24.371 49.073 24.5928 49.1165 24.7998 49.2019C25.0068 49.2873 25.1948 49.4129 25.3531 49.5714C25.5114 49.7299 25.6368 49.9182 25.7221 50.1255C25.8074 50.3328 25.8508 50.5549 25.85 50.7791Z" fill="#536E96"/>
</svg>
