<svg width="187" height="81" viewBox="0 0 187 81" fill="none" xmlns="http://www.w3.org/2000/svg">
<path d="M131.797 35.1158C132.995 35.1158 134.13 35.1158 135.266 35.1158C135.266 35.7474 135.266 36.3789 135.266 37.0737C135.329 37.0737 135.329 37.1368 135.392 37.1368C135.896 36.2526 136.527 35.5579 137.536 35.3684C138.419 35.1789 139.428 35.1789 140.437 35.0526C140.374 35.2421 140.374 35.3684 140.374 35.4947C139.996 36.4421 139.68 37.3895 139.302 38.3368C139.239 38.5895 139.113 38.7158 138.797 38.6526C138.608 38.6526 138.419 38.6526 138.167 38.6526C136.401 38.6526 135.455 39.5368 135.455 41.3053C135.392 43.4527 135.455 45.6 135.392 47.7474C135.392 47.9369 135.392 48.1264 135.392 48.3158C134.193 48.3158 132.995 48.3158 131.797 48.3158C131.797 43.8948 131.797 39.5368 131.797 35.1158Z" fill="#536E96"/>
<path d="M144.916 48.3155C143.717 48.3155 142.582 48.3155 141.384 48.3155C141.384 46.6734 141.384 45.0944 141.384 43.5155C141.384 41.9365 141.384 40.2944 141.384 38.6523C140.942 38.6523 140.564 38.6523 140.06 38.6523C140.375 37.7049 140.753 36.8207 141.069 35.9997C141.384 35.1154 141.384 35.1786 142.33 35.1786C143.213 35.1786 144.096 35.1786 144.979 35.1786C144.916 39.5365 144.916 43.8944 144.916 48.3155Z" fill="#536E96"/>
<path d="M82.6048 43.0102C79.2622 43.0102 75.9196 43.0102 72.577 43.0102C72.577 43.8945 73.46 44.8418 74.5952 45.2208C76.0457 45.6629 77.8747 45.5997 79.1991 43.5787C80.1451 44.1471 81.0281 44.6524 81.9741 45.2208C80.6497 47.8734 77.1179 49.3261 73.6492 48.2524C70.3066 47.1787 68.3515 43.5787 69.2344 40.105C70.1174 36.5681 73.6492 34.3576 77.1809 34.9892C80.6497 35.6207 83.1093 38.5892 82.6048 43.0102ZM72.7031 40.105C74.8474 40.105 76.8656 40.105 78.9468 40.105C78.7576 39.0313 77.6224 38.1471 76.3611 38.0839C74.6582 37.8944 73.2708 38.6523 72.7031 40.105Z" fill="#536E96"/>
<path d="M95.7233 48.3158C94.462 48.3158 93.3267 48.3158 92.0654 48.3158C92.0654 48.1263 92.0654 47.9368 92.0654 47.8105C92.0654 45.4737 92.0654 43.1368 92.0654 40.8C92.0654 40.4842 92.0654 40.2315 92.0023 39.9158C91.8131 38.7789 91.0563 38.021 90.0472 37.9578C88.7228 37.8315 87.7768 38.4 87.3984 39.6C87.2092 40.1052 87.1461 40.7368 87.1461 41.2421C87.1461 43.3895 87.1461 45.5368 87.1461 47.6842C87.1461 47.8737 87.1461 48.0632 87.1461 48.2526C85.9478 48.2526 84.8126 48.2526 83.6143 48.2526C83.6143 43.8947 83.6143 39.5368 83.6143 35.1157C84.7496 35.1157 85.9478 35.1157 87.1461 35.1157C87.1461 35.5578 87.1461 35.9368 87.1461 36.5052C87.3984 36.3157 87.5245 36.1263 87.7137 35.9999C89.2273 34.6736 90.9932 34.4841 92.8222 35.1157C94.5881 35.7473 95.471 37.1368 95.7233 38.9052C95.7864 39.4105 95.8495 39.9158 95.8495 40.421C95.8495 42.821 95.8495 45.221 95.8495 47.6211C95.7233 47.8737 95.7233 48.0632 95.7233 48.3158Z" fill="#536E96"/>
<path d="M159.737 48.3156C158.538 48.3156 157.403 48.3156 156.205 48.3156C156.205 47.8735 156.205 47.4313 156.205 46.9261C156.079 46.9892 156.016 47.0524 155.953 47.0524C153.808 49.2629 150.213 48.9471 147.943 46.8629C146.177 45.2208 145.673 43.0734 145.862 40.7997C146.051 38.8418 146.871 37.2629 148.448 36.0629C150.592 34.4839 153.998 34.3576 155.953 36.2524C155.953 36.2524 156.016 36.2524 156.079 36.3155C156.079 33.9155 156.079 31.5155 156.079 29.1155C157.277 29.1155 158.475 29.1155 159.674 29.1155C159.737 35.4945 159.737 41.8734 159.737 48.3156ZM156.268 41.684C156.268 39.726 154.817 38.1471 152.862 38.1471C150.844 38.1471 149.331 39.6629 149.331 41.684C149.331 43.6419 150.907 45.284 152.862 45.284C154.817 45.284 156.268 43.705 156.268 41.684Z" fill="#536E96"/>
<path d="M106.95 48.2528C106.95 47.8107 106.95 47.3686 106.95 46.9897C106.887 46.9897 106.823 46.9897 106.823 46.9897C104.805 49.137 101.463 49.0739 99.1922 47.3055C97.0479 45.6633 96.4172 43.3896 96.6695 40.8633C96.8587 38.6528 97.8678 36.8844 99.7598 35.7475C101.904 34.4843 104.868 34.4843 106.95 36.3791C106.95 33.9159 106.95 31.5159 106.95 29.0527C108.211 29.0527 109.346 29.0527 110.544 29.0527C110.544 35.4317 110.544 41.8739 110.544 48.2528C109.346 48.2528 108.211 48.2528 106.95 48.2528ZM107.076 41.6844C107.076 39.6633 105.625 38.1475 103.67 38.1475C101.652 38.1475 100.138 39.7265 100.138 41.6844C100.138 43.7054 101.715 45.2212 103.67 45.2212C105.562 45.2844 107.076 43.7054 107.076 41.6844Z" fill="#536E96"/>
<path d="M130.032 33.726C128.96 34.3576 127.887 34.9892 126.878 35.6208C126.374 35.0524 125.995 34.4208 125.491 33.9155C122.59 31.1366 116.787 31.9576 115.337 36.9471C114.076 41.2419 117.355 45.284 121.77 45.0314C124.103 44.905 125.743 43.8313 126.689 41.684C126.752 41.4945 126.815 41.305 126.941 40.9892C126.752 40.9892 126.563 40.9892 126.374 40.9892C124.671 40.9892 123.031 40.9892 121.328 40.9892C120.95 40.9892 120.824 40.8629 120.824 40.484C120.824 39.5366 120.824 38.5261 120.824 37.5155C124.166 37.5155 127.509 37.5155 130.789 37.5155C131.293 42.8208 128.455 47.3682 123.536 48.3787C118.049 49.5156 112.499 46.3577 111.553 40.2945C110.733 35.0524 113.886 30.126 119.121 29.0523C123.094 28.2313 127.383 29.6208 129.716 33.2208C129.779 33.3471 129.906 33.5366 130.032 33.726Z" fill="#536E96"/>
<path d="M143.213 33.0944C142.015 33.0944 141.069 32.1471 141.006 30.9471C141.006 29.7471 141.952 28.7997 143.213 28.7997C144.411 28.7997 145.358 29.7471 145.358 30.9471C145.358 32.0839 144.348 33.0944 143.213 33.0944Z" fill="#536E96"/>
<path d="M54.0351 45.0946C55.1073 44.2104 56.2425 43.3893 57.3146 42.5051C57.7561 43.0104 58.1976 43.5788 58.7021 43.9578C59.7743 44.842 60.9726 45.2209 62.3601 44.9683C63.4953 44.7157 64.3152 43.8946 64.4413 42.6946C64.5044 41.8735 64.126 41.3051 63.4953 40.9262C62.6754 40.5472 61.7925 40.2314 60.9726 39.9156C60.1527 39.5999 59.2697 39.3472 58.4499 39.0314C56.2425 38.2104 54.9811 36.7577 54.9811 34.3577C54.9811 32.0209 56.1794 30.3788 58.2607 29.4314C61.0356 28.1682 65.2612 28.5472 67.847 31.5788C66.8379 32.3367 65.8919 33.0946 64.8828 33.8525C64.7566 33.7261 64.6936 33.663 64.6305 33.5367C63.5584 32.2103 61.7294 31.7051 60.2158 32.2735C59.3959 32.5893 58.8913 33.1577 58.8283 34.0419C58.7652 34.863 59.2067 35.4314 59.9004 35.7472C60.9726 36.2525 62.1078 36.6314 63.243 37.0104C64.4413 37.4525 65.7027 37.8946 66.6487 38.7788C68.3515 40.2946 68.793 42.8209 67.7208 45.0315C66.7748 47.0525 65.072 48.1894 62.8646 48.5052C59.459 48.9473 56.5578 47.9367 54.2243 45.3472C54.1613 45.2841 54.0982 45.2209 54.0351 45.0946Z" fill="#536E96"/>
<path opacity="0.62" d="M49.936 24.6951H33.9799V40.6741H49.936V24.6951Z" fill="#536E96"/>
<path opacity="0.62" d="M42.0523 32.7161H26.4115V48.1267H42.0523V32.7161Z" fill="#536E96"/>
</svg>
