<svg width="187" height="81" viewBox="0 0 187 81" fill="none" xmlns="http://www.w3.org/2000/svg">
<path d="M41.309 27.604C41.6886 27.6672 42.0049 27.7935 42.3844 27.8566C47.6351 28.8672 51.3042 32.9093 51.9368 38.2777C52.5694 44.1515 48.837 49.5831 43.1436 50.9725C42.1314 51.2252 41.1192 51.3515 40.1071 51.3515C35.3625 51.4146 30.6812 51.3515 25.9366 51.4146C25.9366 50.2146 25.9366 49.0778 25.9366 47.8778C27.1386 44.783 28.214 44.0883 31.5669 44.0883C34.4768 44.0883 37.3236 44.0883 40.2336 44.0883C42.6375 44.0883 44.5986 42.3199 44.7883 40.0462C44.9781 37.4567 43.3966 35.3725 40.9927 34.9935C38.5888 34.6146 36.3747 36.1304 35.7421 38.4672C35.6788 38.7198 35.6155 38.9725 35.5523 39.2251C35.4258 39.162 35.3625 39.162 35.2992 39.0988C33.5912 37.3935 31.8832 35.6883 30.1751 34.0461C29.8588 33.7304 29.9853 33.4777 30.1751 33.1619C31.8199 30.6356 34.0973 28.8672 37.0073 28.1093C37.6399 27.9198 38.2725 27.7935 38.9051 27.6672C39.7907 27.604 40.5499 27.604 41.309 27.604Z" fill="#536E96"/>
<path d="M156.254 50.7794C154.862 51.6636 153.407 52.0426 151.762 51.7268C149.295 51.2847 147.84 49.3899 147.84 46.5478C147.84 41.3688 147.84 36.253 147.84 31.074C147.84 30.5056 147.84 29.874 147.84 29.3056C147.84 29.1161 147.966 28.8003 148.156 28.7372C149.611 28.3582 151.066 27.9793 152.585 27.6003C152.585 28.0424 152.585 28.3582 152.585 28.674C152.585 34.2951 152.585 39.9162 152.585 45.5373C152.585 45.8531 152.585 46.232 152.648 46.5478C152.838 47.3057 153.28 47.6846 154.103 47.5583C154.546 47.4952 154.799 47.6215 154.925 48.0004C155.305 48.8215 155.748 49.6425 156.19 50.4636C156.254 50.5899 156.254 50.7162 156.254 50.7794Z" fill="#536E96"/>
<path d="M113.363 27.6003C113.933 27.7266 114.439 27.8529 115.008 28.0424C118.045 29.0529 119.943 31.5792 120.006 34.7371C120.069 38.274 118.424 40.9266 115.388 42.1267C115.135 42.1898 114.945 42.3161 114.565 42.4424C116.59 45.4109 118.614 48.3162 120.702 51.4109C119.943 51.4109 119.436 51.4109 118.867 51.4109C117.665 51.4109 116.526 51.4109 115.325 51.4109C114.818 51.4109 114.502 51.2214 114.186 50.7793C112.604 48.3162 111.023 45.853 109.505 43.3267C109.251 42.8846 108.935 42.6951 108.366 42.6951C107.86 42.7582 107.29 42.7582 106.721 42.6951C106.152 42.6319 105.899 42.8214 105.899 43.453C105.962 45.7898 105.899 48.1267 105.899 50.4635C105.899 51.0951 105.709 51.3478 105.013 51.3478C103.811 51.2846 102.672 51.3478 101.47 51.3478C100.964 51.3478 100.775 51.2214 100.775 50.7162C100.775 43.8951 100.775 37.074 100.775 30.2529C100.775 28.9266 101.534 28.1055 102.672 27.5371C106.405 27.6003 109.884 27.6003 113.363 27.6003ZM109.378 38.0214C110.327 38.0214 111.213 38.0214 112.161 37.9582C113.743 37.8319 114.692 36.8214 114.755 35.1793C114.755 33.5371 113.806 32.4003 112.161 32.3371C110.327 32.274 108.429 32.3371 106.595 32.274C106.152 32.274 106.025 32.4634 106.025 32.8424C106.025 34.3582 106.025 35.874 106.025 37.3898C106.025 37.8951 106.215 38.0214 106.658 38.0214C107.607 38.0214 108.492 38.0214 109.378 38.0214Z" fill="#536E96"/>
<path d="M128.862 51.8528C124.876 51.8528 121.65 49.7686 120.322 46.4212C118.867 42.8212 119.752 38.6528 122.409 36.1264C126.774 32.0212 136.263 32.9685 137.908 40.5475C139.363 46.8002 135.125 51.916 128.862 51.8528ZM128.988 38.2107C126.331 38.2107 124.56 40.0422 124.56 42.8212C124.56 45.537 126.331 47.4317 128.925 47.4317C131.519 47.4317 133.29 45.6002 133.29 42.8844C133.29 40.1054 131.582 38.2107 128.988 38.2107Z" fill="#536E96"/>
<path d="M144.424 29.6213C144.424 30.0634 144.487 30.3792 144.487 30.7582C144.487 35.6845 144.487 40.5477 144.487 45.474C144.487 45.7898 144.487 46.1688 144.55 46.4846C144.613 47.3688 145.119 47.7477 146.005 47.6214C146.448 47.5583 146.701 47.6846 146.827 48.0635C147.144 48.8214 147.523 49.5793 147.966 50.2741C148.156 50.5899 148.093 50.8425 147.776 51.032C146.005 51.9793 144.171 52.232 142.273 51.2846C140.754 50.5267 140.122 49.2004 139.869 47.6214C139.742 47.053 139.742 46.4214 139.742 45.7898C139.742 41.053 139.742 36.3793 139.742 31.6424C139.742 30.8845 139.995 30.6319 140.691 30.4424C141.83 30.2529 143.032 29.9371 144.424 29.6213Z" fill="#536E96"/>
<path d="M72.0536 27.6003C74.0779 32.7792 76.1023 38.0214 78.1899 43.2003C79.1388 45.6004 80.0877 48.0004 81.0366 50.4004C81.1631 50.653 81.2264 50.9688 81.3529 51.3478C80.2142 51.3478 79.202 51.3478 78.1266 51.3478C76.039 51.3478 76.039 51.3478 75.2799 49.3267C74.9636 48.5056 74.6473 47.7477 74.3942 46.9267C74.2677 46.5477 74.0147 46.3583 73.5718 46.3583C70.5986 46.3583 67.6253 46.3583 64.5888 46.3583C64.146 46.3583 63.9562 46.4846 63.7664 46.9267C63.3236 48.1898 62.8175 49.453 62.3747 50.7162C62.1849 51.1583 61.9951 51.4109 61.489 51.3478C59.9708 51.2846 58.4525 51.3478 56.8077 51.3478C56.9343 51.032 56.9975 50.7793 57.0608 50.5267C59.781 43.5161 62.5645 36.5056 65.2847 29.495C65.6642 28.5476 66.2968 27.9792 67.1192 27.5371C68.8273 27.6003 70.4088 27.6003 72.0536 27.6003ZM65.854 41.6214C68.0681 41.6214 70.219 41.6214 72.3699 41.6214C71.2944 38.7161 70.219 35.874 69.0803 32.8424C67.9416 35.874 66.8662 38.7161 65.854 41.6214Z" fill="#536E96"/>
<path d="M98.4967 27.6005C98.4967 27.8531 98.5599 28.1057 98.5599 28.3584C98.5599 35.7479 98.5599 43.1374 98.5599 50.5269C98.5599 51.2848 98.3701 51.5374 97.611 51.4743C96.6621 51.4111 95.7764 51.4743 94.8275 51.4743C94.3847 51.4743 94.1949 51.3479 94.1949 50.9058C94.1949 50.4006 94.0684 49.9585 94.0052 49.4532C93.9419 49.4532 93.8786 49.4532 93.8154 49.5164C91.2849 52.8637 85.971 52.6743 82.9345 49.5795C79.3287 45.8532 79.5817 39.0953 83.4406 35.7479C86.2873 33.2847 90.9054 33.1584 93.3725 35.5584C93.4358 35.6216 93.4991 35.6216 93.6256 35.6847C93.6256 35.4952 93.6888 35.3058 93.6888 35.1163C93.6888 33.79 93.7521 32.4636 93.6888 31.1373C93.6256 29.5584 94.1317 28.3584 95.6499 27.7268C96.6621 27.6005 97.5477 27.6005 98.4967 27.6005ZM85.4017 42.8847C85.4017 43.0742 85.4017 43.3269 85.465 43.5795C85.6547 45.6637 87.2362 47.1795 89.3239 47.369C91.4747 47.5585 93.3093 46.4216 93.8786 44.4005C94.0684 43.7058 94.1317 42.8847 94.0684 42.19C93.9419 40.2953 92.7399 38.8426 90.9686 38.4005C87.8689 37.5795 85.4017 39.5374 85.4017 42.8847Z" fill="#536E96"/>
</svg>
