<svg width="135" height="79" viewBox="0 0 135 79" fill="none" xmlns="http://www.w3.org/2000/svg">
<g filter="url(#filter0_d_103_141)">
<rect x="32.3065" y="0.983398" width="48" height="50.9538" transform="rotate(33.7473 32.3065 0.983398)" fill="url(#paint0_linear_103_141)"/>
</g>
<path d="M10.656 45.5V37.916H16.096C20.704 37.916 23.264 34.748 23.264 31.036C23.264 27.292 20.736 24.156 16.096 24.156H6.112V45.5H10.656ZM15.488 33.916H10.656V28.156H15.488C17.28 28.156 18.624 29.244 18.624 31.036C18.624 32.796 17.28 33.916 15.488 33.916ZM30.0488 45.5V35.292C30.7208 34.3 32.5128 33.532 33.8568 33.532C34.3048 33.532 34.6888 33.564 34.9768 33.628V29.66C33.0568 29.66 31.1368 30.78 30.0488 32.156V30.044H25.9848V45.5H30.0488ZM44.684 45.884C49.804 45.884 52.876 42.172 52.876 37.756C52.876 33.372 49.804 29.66 44.684 29.66C39.596 29.66 36.524 33.372 36.524 37.756C36.524 42.172 39.596 45.884 44.684 45.884ZM44.684 42.268C42.156 42.268 40.748 40.188 40.748 37.756C40.748 35.356 42.156 33.276 44.684 33.276C47.212 33.276 48.652 35.356 48.652 37.756C48.652 40.188 47.212 42.268 44.684 42.268ZM79.155 45.5V34.332C79.155 31.164 77.459 29.66 74.611 29.66C72.243 29.66 70.195 31.068 69.299 32.476C68.723 30.716 67.283 29.66 65.011 29.66C62.643 29.66 60.595 31.132 59.955 32.06V30.044H55.891V45.5H59.955V35.1C60.563 34.236 61.747 33.276 63.155 33.276C64.819 33.276 65.459 34.3 65.459 35.74V45.5H69.555V35.068C70.131 34.236 71.315 33.276 72.755 33.276C74.419 33.276 75.059 34.3 75.059 35.74V45.5H79.155ZM96.485 45.5V35.516C96.485 31.068 93.253 29.66 89.733 29.66C87.301 29.66 84.869 30.428 82.981 32.092L84.517 34.812C85.829 33.596 87.365 32.988 89.029 32.988C91.077 32.988 92.421 34.012 92.421 35.58V37.66C91.397 36.444 89.573 35.772 87.525 35.772C85.061 35.772 82.149 37.148 82.149 40.764C82.149 44.22 85.061 45.884 87.525 45.884C89.541 45.884 91.365 45.148 92.421 43.9V45.5H96.485ZM89.157 43.132C87.557 43.132 86.245 42.3 86.245 40.86C86.245 39.356 87.557 38.524 89.157 38.524C90.469 38.524 91.749 38.972 92.421 39.868V41.788C91.749 42.684 90.469 43.132 89.157 43.132ZM106.852 51.772C110.66 51.772 115.204 50.332 115.204 44.444V30.044H111.108V32.028C109.86 30.46 108.196 29.66 106.34 29.66C102.436 29.66 99.524 32.476 99.524 37.532C99.524 42.684 102.468 45.404 106.34 45.404C108.228 45.404 109.892 44.508 111.108 42.972V44.54C111.108 47.58 108.804 48.444 106.852 48.444C104.9 48.444 103.268 47.9 102.02 46.524L100.196 49.468C102.148 51.164 104.196 51.772 106.852 51.772ZM107.62 41.788C105.316 41.788 103.716 40.188 103.716 37.532C103.716 34.876 105.316 33.276 107.62 33.276C108.964 33.276 110.436 34.012 111.108 35.036V40.028C110.436 41.02 108.964 41.788 107.62 41.788ZM126.499 45.884C128.899 45.884 131.331 45.148 132.867 43.74L131.075 41.116C130.083 42.076 128.259 42.652 126.947 42.652C124.323 42.652 122.755 41.02 122.499 39.068H133.987V38.172C133.987 33.116 130.851 29.66 126.243 29.66C121.539 29.66 118.243 33.276 118.243 37.756C118.243 42.716 121.795 45.884 126.499 45.884ZM130.051 36.316H122.435C122.627 34.78 123.715 32.892 126.243 32.892C128.931 32.892 129.955 34.844 130.051 36.316Z" fill="#0252C5"/>
<defs>
<filter id="filter0_d_103_141" x="0" y="0.983398" width="76.2183" height="77.0334" filterUnits="userSpaceOnUse" color-interpolation-filters="sRGB">
<feFlood flood-opacity="0" result="BackgroundImageFix"/>
<feColorMatrix in="SourceAlpha" type="matrix" values="0 0 0 0 0 0 0 0 0 0 0 0 0 0 0 0 0 0 127 0" result="hardAlpha"/>
<feOffset dy="4"/>
<feGaussianBlur stdDeviation="2"/>
<feComposite in2="hardAlpha" operator="out"/>
<feColorMatrix type="matrix" values="0 0 0 0 0 0 0 0 0 0 0 0 0 0 0 0 0 0 0.15 0"/>
<feBlend mode="normal" in2="BackgroundImageFix" result="effect1_dropShadow_103_141"/>
<feBlend mode="normal" in="SourceGraphic" in2="effect1_dropShadow_103_141" result="shape"/>
</filter>
<linearGradient id="paint0_linear_103_141" x1="56.3065" y1="0.983398" x2="56.3065" y2="51.9372" gradientUnits="userSpaceOnUse">
<stop stop-color="#A4B8FF"/>
<stop offset="0.979744" stop-color="#BADDFF"/>
</linearGradient>
</defs>
</svg>
