<svg width="42" height="36" viewBox="0 0 42 36" fill="none" xmlns="http://www.w3.org/2000/svg">
<path d="M21 0.58666C23.6783 0.574378 26.3329 1.08998 28.8118 2.10401C31.2908 3.11803 33.5457 4.6106 35.4477 6.49643C37.3496 8.38226 38.8613 10.6244 39.8963 13.0947C40.9314 15.5649 41.4695 18.215 41.48 20.8933C41.4864 25.5509 39.8745 30.0661 36.92 33.6667L35.44 35.4133L32.7733 33.16L33.8133 32L33.92 31.8933C36.3416 29.1092 37.7759 25.6031 38 21.92H33.8V18.5067H37.8933C37.4602 15.4672 36.1959 12.6065 34.24 10.24L31.7467 12.7333L29.3333 10.32L31.8267 7.82666C29.219 5.71183 26.0479 4.40908 22.7067 4.07999V9.12H19.2933V4.07999C15.9515 4.40676 12.7797 5.70978 10.1733 7.82666L12.6667 10.32L10.2533 12.7333L7.76 10.24C5.80407 12.6065 4.5398 15.4672 4.10667 18.5067H8.2V21.92H3.96C4.1486 25.4074 5.4474 28.7432 7.66667 31.44L9.17334 33.16L6.62667 35.4133L5.50667 34.08C2.25015 30.4366 0.463438 25.7132 0.493335 20.8267C0.532107 15.4244 2.71357 10.2584 6.55858 6.46339C10.4036 2.66839 15.5977 0.554722 21 0.58666ZM27.32 14L29.7333 16.4L24.2667 21.8533C24.4559 22.5743 24.4029 23.3375 24.1159 24.0255C23.829 24.7134 23.3238 25.288 22.6783 25.6608C22.0328 26.0336 21.2826 26.1839 20.5433 26.0885C19.804 25.9932 19.1165 25.6576 18.5867 25.1333C18.2706 24.8187 18.0198 24.4447 17.8487 24.0328C17.6776 23.6209 17.5895 23.1793 17.5895 22.7333C17.5895 22.2873 17.6776 21.8457 17.8487 21.4339C18.0198 21.022 18.2706 20.648 18.5867 20.3333C18.9701 19.9448 19.4425 19.6555 19.9629 19.4906C20.4833 19.3256 21.0361 19.29 21.5733 19.3867L21.8667 19.4533L27.32 14Z" fill="#AE8FF7"/>
</svg>
