<svg width="52" height="40" viewBox="0 0 52 40" fill="none" xmlns="http://www.w3.org/2000/svg">
<path fill-rule="evenodd" clip-rule="evenodd" d="M25.7352 24.6327L25.9986 24.6328L26.588 24.6348C31.0927 24.6645 41.3872 25.1195 41.3872 32.097C41.3872 39.0288 31.4516 39.4808 26.6582 39.5103L24.8823 39.5103C20.3773 39.4807 10.0808 39.0262 10.0808 32.0574C10.0808 25.1169 20.3773 24.6643 24.8823 24.6348L25.4717 24.6328C25.5631 24.6327 25.651 24.6327 25.7352 24.6327ZM25.7352 28.1327C20.1912 28.1327 13.5808 28.814 13.5808 32.0574C13.5808 35.2273 19.7966 35.9684 25.2285 36.0104L25.7352 36.0124C31.2792 36.0124 37.8872 35.3334 37.8872 32.097C37.8872 28.821 31.2792 28.1327 25.7352 28.1327ZM44.2936 23.6858C49.9472 24.5328 51.1349 27.1882 51.1349 29.2672C51.1349 30.5365 50.6356 32.8535 47.2989 34.1252C47.0936 34.2022 46.8836 34.2395 46.6759 34.2395C45.9712 34.2395 45.3062 33.8102 45.0402 33.1125C44.6949 32.2095 45.1499 31.1968 46.0529 30.8538C47.6349 30.2518 47.6349 29.5868 47.6349 29.2672C47.6349 28.2452 46.3352 27.5312 43.7732 27.1485C42.8189 27.0038 42.1586 26.1148 42.3009 25.1558C42.4432 24.1992 43.3299 23.5622 44.2936 23.6858ZM9.16711 25.1558C9.30945 26.1148 8.64911 27.0038 7.69478 27.1485C5.13278 27.5312 3.83311 28.2452 3.83311 29.2672C3.83311 29.5868 3.83311 30.2495 5.41745 30.8538C6.32045 31.1968 6.77545 32.2095 6.43011 33.1125C6.16411 33.8102 5.49911 34.2395 4.79445 34.2395C4.58678 34.2395 4.37678 34.2022 4.17145 34.1252C0.832448 32.8512 0.333115 30.5342 0.333115 29.2672C0.333115 27.1905 1.52078 24.5328 7.17678 23.6858C8.14045 23.5645 9.02245 24.1992 9.16711 25.1558ZM25.7352 0.333374C31.6152 0.333374 36.3962 5.11671 36.3962 10.9944C36.3962 16.872 31.6152 21.6554 25.7352 21.6554H25.6722C22.8255 21.646 20.1585 20.5307 18.1612 18.5147C16.1592 16.501 15.0648 13.827 15.0764 10.9874C15.0764 5.11671 19.8575 0.333374 25.7352 0.333374ZM25.7352 3.83337C21.7872 3.83337 18.5765 7.04637 18.5765 10.9944C18.5695 12.9077 19.3022 14.6974 20.6438 16.0484C21.9855 17.3994 23.7728 18.1484 25.6768 18.1554L25.7352 19.9054V18.1554C29.6832 18.1554 32.8962 14.9447 32.8962 10.9944C32.8962 7.04637 29.6832 3.83337 25.7352 3.83337ZM40.1762 2.61887C44.2782 3.29321 47.2579 6.80254 47.2579 10.9629C47.2485 15.1512 44.1195 18.7445 39.9778 19.3255C39.8962 19.3372 39.8145 19.3419 39.7352 19.3419C38.8765 19.3419 38.1275 18.7095 38.0038 17.8345C37.8708 16.8755 38.5359 15.9912 39.4949 15.8582C41.9215 15.5175 43.7532 13.4129 43.7579 10.9582C43.7579 8.52454 42.0125 6.46654 39.6068 6.07221C38.6548 5.91587 38.0085 5.01521 38.1648 4.06087C38.3235 3.10654 39.2172 2.46721 40.1762 2.61887ZM13.3055 4.06087C13.4618 5.01521 12.8155 5.91587 11.8635 6.07221C9.45785 6.46654 7.71251 8.52454 7.71251 10.9629C7.71718 13.4129 9.54885 15.5199 11.9732 15.8582C12.9322 15.9912 13.5972 16.8755 13.4642 17.8345C13.3405 18.7095 12.5915 19.3419 11.7328 19.3419C11.6535 19.3419 11.5718 19.3372 11.4902 19.3255C7.34851 18.7445 4.22185 15.1512 4.21251 10.9675C4.21251 6.80254 7.19218 3.29321 11.2942 2.61887C12.2765 2.46487 13.1468 3.11121 13.3055 4.06087Z" fill="#00BA8B"/>
</svg>
