<svg width="52" height="40" viewBox="0 0 52 40" fill="none" xmlns="http://www.w3.org/2000/svg">
<path fill-rule="evenodd" clip-rule="evenodd" d="M25.7352 24.6326L25.9987 24.6327L26.588 24.6347C31.0927 24.6643 41.3872 25.1194 41.3872 32.0969C41.3872 39.0286 31.4516 39.4807 26.6582 39.5102L24.8823 39.5102C20.3774 39.4805 10.0809 39.0261 10.0809 32.0573C10.0809 25.1168 20.3774 24.6642 24.8823 24.6346L25.4717 24.6327C25.5632 24.6326 25.651 24.6326 25.7352 24.6326ZM25.7352 28.1326C20.1912 28.1326 13.5809 28.8139 13.5809 32.0573C13.5809 35.2272 19.7966 35.9683 25.2285 36.0103L25.7352 36.0123C31.2792 36.0123 37.8872 35.3333 37.8872 32.0969C37.8872 28.8209 31.2792 28.1326 25.7352 28.1326ZM44.2936 23.6857C49.9473 24.5327 51.1349 27.1881 51.1349 29.2671C51.1349 30.5364 50.6356 32.8534 47.2989 34.1251C47.0936 34.2021 46.8836 34.2394 46.6759 34.2394C45.9713 34.2394 45.3063 33.8101 45.0403 33.1124C44.6949 32.2094 45.1499 31.1967 46.0529 30.8537C47.6349 30.2517 47.6349 29.5867 47.6349 29.2671C47.6349 28.2451 46.3353 27.5311 43.7733 27.1484C42.8189 27.0037 42.1586 26.1147 42.3009 25.1557C42.4433 24.1991 43.3299 23.5621 44.2936 23.6857ZM9.16713 25.1557C9.30946 26.1147 8.64913 27.0037 7.6948 27.1484C5.1328 27.5311 3.83313 28.2451 3.83313 29.2671C3.83313 29.5867 3.83313 30.2494 5.41746 30.8537C6.32046 31.1967 6.77546 32.2094 6.43013 33.1124C6.16413 33.8101 5.49913 34.2394 4.79446 34.2394C4.5868 34.2394 4.3768 34.2021 4.17146 34.1251C0.832463 32.8511 0.33313 30.5341 0.33313 29.2671C0.33313 27.1904 1.5208 24.5327 7.1768 23.6857C8.14046 23.5644 9.02246 24.1991 9.16713 25.1557ZM25.7352 0.333252C31.6152 0.333252 36.3962 5.11658 36.3962 10.9943C36.3962 16.8719 31.6152 21.6553 25.7352 21.6553H25.6722C22.8255 21.6459 20.1585 20.5306 18.1612 18.5146C16.1592 16.5009 15.0649 13.8269 15.0764 10.9873C15.0764 5.11659 19.8575 0.333252 25.7352 0.333252ZM25.7352 3.83325C21.7872 3.83325 18.5765 7.04625 18.5765 10.9943C18.5695 12.9076 19.3022 14.6973 20.6439 16.0483C21.9855 17.3993 23.7729 18.1483 25.6769 18.1553L25.7352 19.9053V18.1553C29.6832 18.1553 32.8962 14.9446 32.8962 10.9943C32.8962 7.04625 29.6832 3.83325 25.7352 3.83325ZM40.1762 2.61875C44.2782 3.29309 47.2579 6.80242 47.2579 10.9628C47.2485 15.1511 44.1195 18.7444 39.9779 19.3254C39.8962 19.3371 39.8145 19.3418 39.7352 19.3418C38.8765 19.3418 38.1275 18.7094 38.0039 17.8344C37.8709 16.8754 38.5359 15.9911 39.4949 15.8581C41.9215 15.5174 43.7532 13.4128 43.7579 10.9581C43.7579 8.52442 42.0125 6.46642 39.6069 6.07209C38.6549 5.91575 38.0085 5.01509 38.1649 4.06075C38.3235 3.10642 39.2172 2.46709 40.1762 2.61875ZM13.3055 4.06075C13.4619 5.01509 12.8155 5.91575 11.8635 6.07209C9.45786 6.46642 7.71253 8.52442 7.71253 10.9628C7.7172 13.4128 9.54886 15.5198 11.9732 15.8581C12.9322 15.9911 13.5972 16.8754 13.4642 17.8344C13.3405 18.7094 12.5915 19.3418 11.7329 19.3418C11.6535 19.3418 11.5719 19.3371 11.4902 19.3254C7.34853 18.7444 4.22186 15.1511 4.21253 10.9674C4.21253 6.80242 7.1922 3.29309 11.2942 2.61875C12.2765 2.46475 13.1469 3.11109 13.3055 4.06075Z" fill="#EEB300"/>
</svg>
